999
dxfrw 0.6.3
  0
SECTION
  2
HEADER
  9
$ACADVER
  1
AC1021
  9
$DWGCODEPAGE
  3
ANSI_932
  9
$INSBASE
 10
0
 20
0
 30
0
  9
$EXTMIN
 10
-238.1422262787712
 20
-126.3695882545178
 30
0
  9
$EXTMAX
 10
637
 20
346.1751442127218
 30
0
  9
$LIMMIN
 10
0
 20
0
  9
$LIMMAX
 10
12
 20
9
  9
$ORTHOMODE
 70
    1
  9
$REGENMODE
 70
    1
  9
$FILLMODE
 70
    1
  9
$QTEXTMODE
 70
    0
  9
$MIRRTEXT
 70
    1
  9
$LTSCALE
 40
1
  9
$ATTMODE
 70
    1
  9
$TEXTSIZE
 40
2.5
  9
$TRACEWID
 40
0.05
  9
$TEXTSTYLE
  7
Standard
  9
$CLAYER
  8
Defpoints
  9
$CELTYPE
  6
CONTINUOUS
  9
$CECOLOR
 62
  256
  9
$CELTSCALE
 40
1
  9
$DISPSILH
 70
    0
  9
$DIMSCALE
 40
1
  9
$DIMASZ
 40
2.5
  9
$DIMEXO
 40
0.625
  9
$DIMDLI
 40
0.38
  9
$DIMRND
 40
0
  9
$DIMDLE
 40
0
  9
$DIMEXE
 40
1.25
  9
$DIMTP
 40
0
  9
$DIMTM
 40
0
  9
$DIMTXT
 40
2.5
  9
$DIMCEN
 40
0.09
  9
$DIMTSZ
 40
0
  9
$DIMTOL
 70
    0
  9
$DIMLIM
 70
    0
  9
$DIMTIH
 70
    1
  9
$DIMTOH
 70
    1
  9
$DIMSE1
 70
    0
  9
$DIMSE2
 70
    0
  9
$DIMTAD
 70
    0
  9
$DIMZIN
 70
    0
  9
$DIMBLK
  1

  9
$DIMASO
 70
    1
  9
$DIMSHO
 70
    1
  9
$DIMPOST
  1

  9
$DIMAPOST
  1

  9
$DIMALT
 70
    0
  9
$DIMALTD
 70
    2
  9
$DIMALTF
 40
25.4
  9
$DIMLFAC
 40
1
  9
$DIMTOFL
 70
    0
  9
$DIMTVP
 40
0
  9
$DIMTIX
 70
    0
  9
$DIMSOXD
 70
    0
  9
$DIMSAH
 70
    0
  9
$DIMBLK1
  1

  9
$DIMBLK2
  1

  9
$DIMSTYLE
  2
Standard
  9
$DIMCLRD
 70
    0
  9
$DIMCLRE
 70
    0
  9
$DIMCLRT
 70
    0
  9
$DIMTFAC
 40
1
  9
$DIMGAP
 40
0.625
  9
$DIMJUST
 70
    0
  9
$DIMSD1
 70
    0
  9
$DIMSD2
 70
    0
  9
$DIMTOLJ
 70
    1
  9
$DIMTZIN
 70
    0
  9
$DIMALTZ
 70
    0
  9
$DIMALTTZ
 70
    0
  9
$DIMUPT
 70
    0
  9
$DIMDEC
 70
    2
  9
$DIMTDEC
 70
    4
  9
$DIMALTU
 70
    2
  9
$DIMALTTD
 70
    2
  9
$DIMTXSTY
  7
Standard
  9
$DIMAUNIT
 70
    0
  9
$DIMADEC
 70
    0
  9
$DIMALTRND
 40
0
  9
$DIMAZIN
 70
    0
  9
$DIMDSEP
 70
   46
  9
$DIMATFIT
 70
    3
  9
$DIMFRAC
 70
    0
  9
$DIMLDRBLK
  1

  9
$DIMLUNIT
 70
    2
  9
$DIMLWD
 70
   -2
  9
$DIMLWE
 70
   -2
  9
$DIMTMOVE
 70
    0
  9
$DIMFXL
 40
1
  9
$DIMFXLON
 70
    0
  9
$DIMJOGANG
 40
0.7854
  9
$DIMTFILL
 70
    0
  9
$DIMTFILLCLR
 70
    0
  9
$DIMARCSYM
 70
    0
  9
$DIMLTYPE
  6

  9
$DIMLTEX1
  6

  9
$DIMLTEX2
  6

  9
$LUNITS
 70
    2
  9
$LUPREC
 70
    4
  9
$SKETCHINC
 40
0.1
  9
$FILLETRAD
 40
3
  9
$AUNITS
 70
    0
  9
$AUPREC
 70
    0
  9
$MENU
  1
.
  9
$ELEVATION
 40
0
  9
$PELEVATION
 40
0
  9
$THICKNESS
 40
0
  9
$LIMCHECK
 70
    0
  9
$CHAMFERA
 40
0
  9
$CHAMFERB
 40
0
  9
$CHAMFERC
 40
0
  9
$CHAMFERD
 40
0
  9
$SKPOLY
 70
    0
  9
$USRTIMER
 70
    1
  9
$ANGBASE
 50
0
  9
$ANGDIR
 70
    0
  9
$PDMODE
 70
    0
  9
$PDSIZE
 40
0
  9
$PLINEWID
 40
0
  9
$SPLFRAME
 70
    0
  9
$SPLINETYPE
 70
    6
  9
$SPLINESEGS
 70
    8
  9
$HANDSEED
  5
20000
  9
$SURFTAB1
 70
    6
  9
$SURFTAB2
 70
    6
  9
$SURFTYPE
 70
    6
  9
$SURFU
 70
    6
  9
$SURFV
 70
    6
  9
$UCSBASE
  2

  9
$UCSNAME
  2

  9
$UCSORG
 10
0
 20
0
 30
0
  9
$UCSXDIR
 10
1
 20
0
 30
0
  9
$UCSYDIR
 10
0
 20
1
 30
0
  9
$UCSORTHOREF
  2

  9
$UCSORTHOVIEW
 70
    0
  9
$UCSORGTOP
 10
0
 20
0
 30
0
  9
$UCSORGBOTTOM
 10
0
 20
0
 30
0
  9
$UCSORGLEFT
 10
0
 20
0
 30
0
  9
$UCSORGRIGHT
 10
0
 20
0
 30
0
  9
$UCSORGFRONT
 10
0
 20
0
 30
0
  9
$UCSORGBACK
 10
0
 20
0
 30
0
  9
$PUCSBASE
  2

  9
$PUCSNAME
  2

  9
$PUCSORG
 10
0
 20
0
 30
0
  9
$PUCSXDIR
 10
1
 20
0
 30
0
  9
$PUCSYDIR
 10
0
 20
1
 30
0
  9
$PUCSORTHOREF
  2

  9
$PUCSORTHOVIEW
 70
    0
  9
$PUCSORGTOP
 10
0
 20
0
 30
0
  9
$PUCSORGBOTTOM
 10
0
 20
0
 30
0
  9
$PUCSORGLEFT
 10
0
 20
0
 30
0
  9
$PUCSORGRIGHT
 10
0
 20
0
 30
0
  9
$PUCSORGFRONT
 10
0
 20
0
 30
0
  9
$PUCSORGBACK
 10
0
 20
0
 30
0
  9
$USERI1
 70
    0
  9
$USERI2
 70
    0
  9
$USERI3
 70
    0
  9
$USERI4
 70
    0
  9
$USERI5
 70
    0
  9
$USERR1
 40
0
  9
$USERR2
 40
0
  9
$USERR3
 40
0
  9
$USERR4
 40
0
  9
$USERR5
 40
0
  9
$WORLDVIEW
 70
    1
  9
$SHADEDGE
 70
    3
  9
$SHADEDIF
 70
   70
  9
$TILEMODE
 70
    1
  9
$MAXACTVP
 70
   64
  9
$PINSBASE
 10
0
 20
0
 30
0
  9
$PLIMCHECK
 70
    0
  9
$PEXTMIN
 10
1e+20
 20
1e+20
 30
1e+20
  9
$PEXTMAX
 10
-1e+20
 20
-1e+20
 30
-1e+20
  9
$GRIDMODE
 70
    1
  9
$SNAPSTYLE
 70
    0
  9
$PLIMMIN
 10
0
 20
0
  9
$PLIMMAX
 10
210
 20
297
  9
$UNITMODE
 70
    0
  9
$VISRETAIN
 70
    1
  9
$PLINEGEN
 70
    0
  9
$PSLTSCALE
 70
    1
  9
$TREEDEPTH
 70
 3020
  9
$CMLSTYLE
  2
Standard
  9
$CMLJUST
 70
    0
  9
$CMLSCALE
 40
1
  9
$PROXYGRAPHICS
 70
    1
  9
$MEASUREMENT
 70
    0
  9
$CELWEIGHT
370
   -1
  9
$ENDCAPS
280
    0
  9
$JOINSTYLE
280
    0
  9
$LWDISPLAY
290
    0
  9
$INSUNITS
 70
    4
  9
$HYPERLINKBASE
  1

  9
$STYLESHEET
  1

  9
$XEDIT
290
    1
  9
$CEPSNTYPE
380
    0
  9
$PSTYLEMODE
290
    1
  9
$EXTNAMES
290
    1
  9
$PSVPSCALE
 40
0
  9
$OLESTARTUP
290
    0
  9
$SORTENTS
280
  127
  9
$INDEXCTL
280
    0
  9
$HIDETEXT
280
    1
  9
$XCLIPFRAME
290
    0
  9
$HALOGAP
280
    0
  9
$OBSCOLOR
 70
  257
  9
$OBSLTYPE
280
    0
  9
$INTERSECTIONDISPLAY
280
    0
  9
$INTERSECTIONCOLOR
 70
  257
  9
$DIMASSOC
280
    1
  9
$PROJECTNAME
  1

  9
$CAMERADISPLAY
290
    0
  9
$LENSLENGTH
 40
50
  9
$CAMERAHEIGHT
 40
0
  9
$STEPSPERSEC
 40
2
  9
$STEPSIZE
 40
50
  9
$3DDWFPREC
 40
2
  9
$PSOLWIDTH
 40
5
  9
$PSOLHEIGHT
 40
80
  9
$LOFTANG1
 40
1.570796326794897
  9
$LOFTANG2
 40
1.570796326794897
  9
$LOFTMAG1
 40
0
  9
$LOFTMAG2
 40
0
  9
$LOFTPARAM
 70
    7
  9
$LOFTNORMALS
280
    1
  9
$LATITUDE
 40
1
  9
$LONGITUDE
 40
1
  9
$NORTHDIRECTION
 40
0
  9
$TIMEZONE
 70
-8000
  9
$LIGHTGLYPHDISPLAY
280
    1
  9
$TILEMODELIGHTSYNCH
280
    1
  9
$SOLIDHIST
280
    1
  9
$SHOWHIST
280
    1
  9
$DWFFRAME
280
    2
  9
$DGNFRAME
280
    0
  9
$REALWORLDSCALE
290
    1
  9
$INTERFERECOLOR
 62
    1
  9
$CSHADOW
280
    0
  9
$SHADOWPLANELOCATION
 40
0
  0
ENDSEC
  0
SECTION
  2
CLASSES
  0
ENDSEC
  0
SECTION
  2
TABLES
  0
TABLE
  2
VPORT
  5
8
330
0
100
AcDbSymbolTable
 70
    1
  0
VPORT
  5
31
330
2
100
AcDbSymbolTableRecord
100
AcDbViewportTableRecord
  2
*ACTIVE
 70
    0
 10
0
 20
0
 11
1
 21
1
 12
203.3214425460363
 22
87.6776480867666
 13
0
 23
0
 14
10
 24
10
 15
10
 25
10
 16
0
 26
0
 36
1
 17
0
 27
0
 37
0
 40
428.5622971137643
 41
1.707231040564374
 42
50
 43
0
 44
0
 50
0
 51
0
 71
    0
 72
  100
 73
    1
 74
    3
 75
    0
 76
    1
 77
    0
 78
    0
281
    0
 65
    1
110
0
120
0
130
0
111
1
121
0
131
0
112
0
122
1
132
0
 79
    0
146
0
348
10020
 60
    7
 61
    5
292
1
282
    1
141
0
142
0
 63
  250
421
3358443
  0
ENDTAB
  0
TABLE
  2
LTYPE
  5
5
330
0
100
AcDbSymbolTable
 70
    4
  0
LTYPE
  5
14
330
5
100
AcDbSymbolTableRecord
100
AcDbLinetypeTableRecord
  2
ByBlock
 70
    0
  3

 72
   65
 73
    0
 40
0
  0
LTYPE
  5
15
330
5
100
AcDbSymbolTableRecord
100
AcDbLinetypeTableRecord
  2
ByLayer
 70
    0
  3

 72
   65
 73
    0
 40
0
  0
LTYPE
  5
16
330
5
100
AcDbSymbolTableRecord
100
AcDbLinetypeTableRecord
  2
Continuous
 70
    0
  3
Solid line
 72
   65
 73
    0
 40
0
  0
LTYPE
  5
32
330
5
100
AcDbSymbolTableRecord
100
AcDbLinetypeTableRecord
  2
DOT
 70
    0
  3
Dot . . . . . . . . . . . . . . . . . . . . . .
 72
   65
 73
    2
 40
6.35
 49
0
 74
    0
 49
-6.35
 74
    0
  0
LTYPE
  5
33
330
5
100
AcDbSymbolTableRecord
100
AcDbLinetypeTableRecord
  2
DOTTINY
 70
    0
  3
Dot (.15x) .....................................
 72
   65
 73
    2
 40
0.9525
 49
0
 74
    0
 49
-0.9525
 74
    0
  0
LTYPE
  5
34
330
5
100
AcDbSymbolTableRecord
100
AcDbLinetypeTableRecord
  2
DOT2
 70
    0
  3
Dot (.5x) .....................................
 72
   65
 73
    2
 40
3.175
 49
0
 74
    0
 49
-3.175
 74
    0
  0
LTYPE
  5
35
330
5
100
AcDbSymbolTableRecord
100
AcDbLinetypeTableRecord
  2
DOTX2
 70
    0
  3
Dot (2x) .  .  .  .  .  .  .  .  .  .  .  .  .
 72
   65
 73
    2
 40
12.7
 49
0
 74
    0
 49
-12.7
 74
    0
  0
LTYPE
  5
36
330
5
100
AcDbSymbolTableRecord
100
AcDbLinetypeTableRecord
  2
DASHED
 70
    0
  3
Dashed _ _ _ _ _ _ _ _ _ _ _ _ _ _ _ _ _
 72
   65
 73
    2
 40
19.05
 49
12.7
 74
    0
 49
-6.35
 74
    0
  0
LTYPE
  5
37
330
5
100
AcDbSymbolTableRecord
100
AcDbLinetypeTableRecord
  2
DASHEDTINY
 70
    0
  3
Dashed (.15x) _ _ _ _ _ _ _ _ _ _ _ _ _ _ _ _ _
 72
   65
 73
    2
 40
2.8575
 49
1.905
 74
    0
 49
-0.9525
 74
    0
  0
LTYPE
  5
38
330
5
100
AcDbSymbolTableRecord
100
AcDbLinetypeTableRecord
  2
DASHED2
 70
    0
  3
Dashed (.5x) _ _ _ _ _ _ _ _ _ _ _ _ _ _ _ _ _
 72
   65
 73
    2
 40
9.524999999999999
 49
6.35
 74
    0
 49
-3.175
 74
    0
  0
LTYPE
  5
39
330
5
100
AcDbSymbolTableRecord
100
AcDbLinetypeTableRecord
  2
DASHEDX2
 70
    0
  3
Dashed (2x) ____  ____  ____  ____  ____  ___
 72
   65
 73
    2
 40
38.09999999999999
 49
25.4
 74
    0
 49
-12.7
 74
    0
  0
LTYPE
  5
3A
330
5
100
AcDbSymbolTableRecord
100
AcDbLinetypeTableRecord
  2
DASHDOT
 70
    0
  3
Dash dot __ . __ . __ . __ . __ . __ . __ . __
 72
   65
 73
    4
 40
25.4
 49
12.7
 74
    0
 49
-6.35
 74
    0
 49
0
 74
    0
 49
-6.35
 74
    0
  0
LTYPE
  5
3B
330
5
100
AcDbSymbolTableRecord
100
AcDbLinetypeTableRecord
  2
DASHDOTTINY
 70
    0
  3
Dash dot (.15x) _._._._._._._._._._._._._._._.
 72
   65
 73
    4
 40
3.81
 49
1.905
 74
    0
 49
-0.9525
 74
    0
 49
0
 74
    0
 49
-0.9525
 74
    0
  0
LTYPE
  5
3C
330
5
100
AcDbSymbolTableRecord
100
AcDbLinetypeTableRecord
  2
DASHDOT2
 70
    0
  3
Dash dot (.5x) _._._._._._._._._._._._._._._.
 72
   65
 73
    4
 40
12.7
 49
6.35
 74
    0
 49
-3.175
 74
    0
 49
0
 74
    0
 49
-3.175
 74
    0
  0
LTYPE
  5
3D
330
5
100
AcDbSymbolTableRecord
100
AcDbLinetypeTableRecord
  2
DASHDOTX2
 70
    0
  3
Dash dot (2x) ____  .  ____  .  ____  .  ___
 72
   65
 73
    4
 40
50.8
 49
25.4
 74
    0
 49
-12.7
 74
    0
 49
0
 74
    0
 49
-12.7
 74
    0
  0
LTYPE
  5
3E
330
5
100
AcDbSymbolTableRecord
100
AcDbLinetypeTableRecord
  2
DIVIDE
 70
    0
  3
Divide ____ . . ____ . . ____ . . ____ . . ____
 72
   65
 73
    6
 40
31.75
 49
12.7
 74
    0
 49
-6.35
 74
    0
 49
0
 74
    0
 49
-6.35
 74
    0
 49
0
 74
    0
 49
-6.35
 74
    0
  0
LTYPE
  5
3F
330
5
100
AcDbSymbolTableRecord
100
AcDbLinetypeTableRecord
  2
DIVIDETINY
 70
    0
  3
Divide (.15x) __..__..__..__..__..__..__..__.._
 72
   65
 73
    6
 40
4.7625
 49
1.905
 74
    0
 49
-0.9525
 74
    0
 49
0
 74
    0
 49
-0.9525
 74
    0
 49
0
 74
    0
 49
-0.9525
 74
    0
  0
LTYPE
  5
40
330
5
100
AcDbSymbolTableRecord
100
AcDbLinetypeTableRecord
  2
DIVIDE2
 70
    0
  3
Divide (.5x) __..__..__..__..__..__..__..__.._
 72
   65
 73
    6
 40
15.875
 49
6.35
 74
    0
 49
-3.175
 74
    0
 49
0
 74
    0
 49
-3.175
 74
    0
 49
0
 74
    0
 49
-3.175
 74
    0
  0
LTYPE
  5
41
330
5
100
AcDbSymbolTableRecord
100
AcDbLinetypeTableRecord
  2
DIVIDEX2
 70
    0
  3
Divide (2x) ________  .  .  ________  .  .  _
 72
   65
 73
    6
 40
63.5
 49
25.4
 74
    0
 49
-12.7
 74
    0
 49
0
 74
    0
 49
-12.7
 74
    0
 49
0
 74
    0
 49
-12.7
 74
    0
  0
LTYPE
  5
42
330
5
100
AcDbSymbolTableRecord
100
AcDbLinetypeTableRecord
  2
BORDER
 70
    0
  3
Border __ __ . __ __ . __ __ . __ __ . __ __ .
 72
   65
 73
    6
 40
44.45
 49
12.7
 74
    0
 49
-6.35
 74
    0
 49
12.7
 74
    0
 49
-6.35
 74
    0
 49
0
 74
    0
 49
-6.35
 74
    0
  0
LTYPE
  5
43
330
5
100
AcDbSymbolTableRecord
100
AcDbLinetypeTableRecord
  2
BORDERTINY
 70
    0
  3
Border (.15x) __.__.__.__.__.__.__.__.__.__.__.
 72
   65
 73
    6
 40
6.6675
 49
1.905
 74
    0
 49
-0.9525
 74
    0
 49
1.905
 74
    0
 49
-0.9525
 74
    0
 49
0
 74
    0
 49
-0.9525
 74
    0
  0
LTYPE
  5
44
330
5
100
AcDbSymbolTableRecord
100
AcDbLinetypeTableRecord
  2
BORDER2
 70
    0
  3
Border (.5x) __.__.__.__.__.__.__.__.__.__.__.
 72
   65
 73
    6
 40
22.225
 49
6.35
 74
    0
 49
-3.175
 74
    0
 49
6.35
 74
    0
 49
-3.175
 74
    0
 49
0
 74
    0
 49
-3.175
 74
    0
  0
LTYPE
  5
45
330
5
100
AcDbSymbolTableRecord
100
AcDbLinetypeTableRecord
  2
BORDERX2
 70
    0
  3
Border (2x) ____  ____  .  ____  ____  .  ___
 72
   65
 73
    6
 40
88.89999999999999
 49
25.4
 74
    0
 49
-12.7
 74
    0
 49
25.4
 74
    0
 49
-12.7
 74
    0
 49
0
 74
    0
 49
-12.7
 74
    0
  0
LTYPE
  5
46
330
5
100
AcDbSymbolTableRecord
100
AcDbLinetypeTableRecord
  2
CENTER
 70
    0
  3
Center ____ _ ____ _ ____ _ ____ _ ____ _ ____
 72
   65
 73
    4
 40
50.8
 49
31.75
 74
    0
 49
-6.35
 74
    0
 49
6.35
 74
    0
 49
-6.35
 74
    0
  0
LTYPE
  5
47
330
5
100
AcDbSymbolTableRecord
100
AcDbLinetypeTableRecord
  2
CENTERTINY
 70
    0
  3
Center (.15x) ___ _ ___ _ ___ _ ___ _ ___ _ ___
 72
   65
 73
    4
 40
7.619999999999999
 49
4.7625
 74
    0
 49
-0.9525
 74
    0
 49
0.9525
 74
    0
 49
-0.9525
 74
    0
  0
LTYPE
  5
48
330
5
100
AcDbSymbolTableRecord
100
AcDbLinetypeTableRecord
  2
CENTER2
 70
    0
  3
Center (.5x) ___ _ ___ _ ___ _ ___ _ ___ _ ___
 72
   65
 73
    4
 40
28.575
 49
19.05
 74
    0
 49
-3.175
 74
    0
 49
3.175
 74
    0
 49
-3.175
 74
    0
  0
LTYPE
  5
49
330
5
100
AcDbSymbolTableRecord
100
AcDbLinetypeTableRecord
  2
CENTERX2
 70
    0
  3
Center (2x) ________  __  ________  __  _____
 72
   65
 73
    4
 40
101.6
 49
63.5
 74
    0
 49
-12.7
 74
    0
 49
12.7
 74
    0
 49
-12.7
 74
    0
  0
ENDTAB
  0
TABLE
  2
LAYER
  5
2
330
0
100
AcDbSymbolTable
 70
    1
  0
LAYER
  5
10
330
2
100
AcDbSymbolTableRecord
100
AcDbLayerTableRecord
  2
0
 70
    0
 62
  251
  6
CONTINUOUS
370
    0
390
F
  0
LAYER
  5
4A
330
2
100
AcDbSymbolTableRecord
100
AcDbLayerTableRecord
  2
Defpoints
 70
    0
 62
    7
  6
CONTINUOUS
290
0
370
   -3
390
F
  0
LAYER
  5
4B
330
2
100
AcDbSymbolTableRecord
100
AcDbLayerTableRecord
  2
base01
 70
    4
 62
    1
  6
CONTINUOUS
370
    0
390
F
  0
LAYER
  5
4C
330
2
100
AcDbSymbolTableRecord
100
AcDbLayerTableRecord
  2
base02
 70
    4
 62
    2
  6
CONTINUOUS
370
    0
390
F
  0
LAYER
  5
4D
330
2
100
AcDbSymbolTableRecord
100
AcDbLayerTableRecord
  2
base03
 70
    4
 62
    3
  6
CONTINUOUS
370
    0
390
F
  0
LAYER
  5
4E
330
2
100
AcDbSymbolTableRecord
100
AcDbLayerTableRecord
  2
base04
 70
    4
 62
    4
  6
CONTINUOUS
370
    0
390
F
  0
LAYER
  5
4F
330
2
100
AcDbSymbolTableRecord
100
AcDbLayerTableRecord
  2
base05
 70
    4
 62
    5
  6
CONTINUOUS
370
    0
390
F
  0
LAYER
  5
50
330
2
100
AcDbSymbolTableRecord
100
AcDbLayerTableRecord
  2
base06
 70
    4
 62
    6
  6
CONTINUOUS
370
    0
390
F
  0
LAYER
  5
51
330
2
100
AcDbSymbolTableRecord
100
AcDbLayerTableRecord
  2
base11
 70
    4
 62
    1
  6
CONTINUOUS
370
    0
390
F
  0
LAYER
  5
52
330
2
100
AcDbSymbolTableRecord
100
AcDbLayerTableRecord
  2
base12
 70
    4
 62
    2
  6
CONTINUOUS
370
   -3
390
F
  0
LAYER
  5
53
330
2
100
AcDbSymbolTableRecord
100
AcDbLayerTableRecord
  2
base13
 70
    4
 62
    3
  6
CONTINUOUS
370
   -3
390
F
  0
LAYER
  5
54
330
2
100
AcDbSymbolTableRecord
100
AcDbLayerTableRecord
  2
base14
 70
    4
 62
    4
  6
CONTINUOUS
370
   -3
390
F
  0
LAYER
  5
55
330
2
100
AcDbSymbolTableRecord
100
AcDbLayerTableRecord
  2
dims
 70
    0
 62
  113
  6
CONTINUOUS
370
    0
390
F
  0
LAYER
  5
56
330
2
100
AcDbSymbolTableRecord
100
AcDbLayerTableRecord
  2
panel00
 70
    0
 62
    7
  6
CONTINUOUS
370
   -3
390
F
  0
LAYER
  5
57
330
2
100
AcDbSymbolTableRecord
100
AcDbLayerTableRecord
  2
panel01
 70
    0
 62
    1
  6
CONTINUOUS
370
    0
390
F
  0
LAYER
  5
58
330
2
100
AcDbSymbolTableRecord
100
AcDbLayerTableRecord
  2
panel02
 70
    0
 62
    2
  6
CONTINUOUS
370
    0
390
F
  0
LAYER
  5
59
330
2
100
AcDbSymbolTableRecord
100
AcDbLayerTableRecord
  2
panel03
 70
    0
 62
    3
  6
CONTINUOUS
370
    0
390
F
  0
LAYER
  5
5A
330
2
100
AcDbSymbolTableRecord
100
AcDbLayerTableRecord
  2
panel04
 70
    0
 62
    4
  6
CONTINUOUS
370
    0
390
F
  0
LAYER
  5
5B
330
2
100
AcDbSymbolTableRecord
100
AcDbLayerTableRecord
  2
panel05
 70
    0
 62
    5
  6
CONTINUOUS
370
    0
390
F
  0
LAYER
  5
5C
330
2
100
AcDbSymbolTableRecord
100
AcDbLayerTableRecord
  2
panel06
 70
    0
 62
    6
  6
CONTINUOUS
370
    0
390
F
  0
LAYER
  5
5D
330
2
100
AcDbSymbolTableRecord
100
AcDbLayerTableRecord
  2
panel11
 70
    0
 62
    1
  6
CONTINUOUS
370
    0
390
F
  0
LAYER
  5
5E
330
2
100
AcDbSymbolTableRecord
100
AcDbLayerTableRecord
  2
panel12
 70
    0
 62
    2
  6
CONTINUOUS
370
   -3
390
F
  0
LAYER
  5
5F
330
2
100
AcDbSymbolTableRecord
100
AcDbLayerTableRecord
  2
panel13
 70
    0
 62
    3
  6
CONTINUOUS
370
   -3
390
F
  0
LAYER
  5
60
330
2
100
AcDbSymbolTableRecord
100
AcDbLayerTableRecord
  2
panel14
 70
    0
 62
    4
  6
CONTINUOUS
370
   -3
390
F
  0
ENDTAB
  0
TABLE
  2
STYLE
  5
3
330
0
100
AcDbSymbolTable
 70
    3
  0
STYLE
  5
61
330
2
100
AcDbSymbolTableRecord
100
AcDbTextStyleTableRecord
  2
Standard
 70
    0
 40
0
 41
1
 50
0
 71
    0
 42
1
  3
txt
  4

  0
ENDTAB
  0
TABLE
  2
VIEW
  5
6
330
0
100
AcDbSymbolTable
 70
    0
  0
ENDTAB
  0
TABLE
  2
UCS
  5
7
330
0
100
AcDbSymbolTable
 70
    0
  0
ENDTAB
  0
TABLE
  2
APPID
  5
9
330
0
100
AcDbSymbolTable
 70
    1
  0
APPID
  5
12
330
9
100
AcDbSymbolTableRecord
100
AcDbRegAppTableRecord
  2
ACAD
 70
    0
  0
APPID
  5
62
330
9
100
AcDbSymbolTableRecord
100
AcDbRegAppTableRecord
  2
LibreCad
 70
    0
  0
ENDTAB
  0
TABLE
  2
DIMSTYLE
  5
A
330
0
100
AcDbSymbolTable
 70
    1
100
AcDbDimStyleTable
 71
    1
  0
DIMSTYLE
105
63
330
A
100
AcDbSymbolTableRecord
100
AcDbDimStyleTableRecord
  2
Standard
 70
    0
 40
1
 41
2.5
 42
0.625
 43
0.38
 44
1.25
 45
0
 46
0
 47
0
 48
0
 49
1
140
2.5
141
0.09
142
0
143
25.4
144
1
145
0
146
1
147
0.625
148
0
 71
    0
 72
    0
 73
    1
 74
    1
 75
    0
 76
    0
 77
    0
 78
    0
 79
    0
170
    0
171
    2
172
    0
173
    0
174
    0
175
    0
176
    0
177
    0
178
    0
179
    0
271
    2
272
    4
273
    2
274
    2
275
    0
276
    0
277
    2
278
   46
279
    0
280
    0
281
    0
282
    0
283
    1
284
    0
285
    0
286
    0
288
    0
289
    3
340
Standard
341

371
   -2
372
   -2
  0
ENDTAB
  0
TABLE
  2
BLOCK_RECORD
  5
1
330
0
100
AcDbSymbolTable
 70
    2
  0
BLOCK_RECORD
  5
1F
330
1
100
AcDbSymbolTableRecord
100
AcDbBlockTableRecord
  2
*Model_Space
 70
    0
280
    1
281
    0
  0
BLOCK_RECORD
  5
1E
330
1
100
AcDbSymbolTableRecord
100
AcDbBlockTableRecord
  2
*Paper_Space
 70
    0
280
    1
281
    0
  0
BLOCK_RECORD
  5
64
330
1
100
AcDbSymbolTableRecord
100
AcDbBlockTableRecord
  2
*D8
 70
    0
280
    1
281
    0
  0
BLOCK_RECORD
  5
67
330
1
100
AcDbSymbolTableRecord
100
AcDbBlockTableRecord
  2
*D7
 70
    0
280
    1
281
    0
  0
BLOCK_RECORD
  5
6A
330
1
100
AcDbSymbolTableRecord
100
AcDbBlockTableRecord
  2
*D9
 70
    0
280
    1
281
    0
  0
BLOCK_RECORD
  5
6D
330
1
100
AcDbSymbolTableRecord
100
AcDbBlockTableRecord
  2
*D2
 70
    0
280
    1
281
    0
  0
BLOCK_RECORD
  5
70
330
1
100
AcDbSymbolTableRecord
100
AcDbBlockTableRecord
  2
*D6
 70
    0
280
    1
281
    0
  0
BLOCK_RECORD
  5
73
330
1
100
AcDbSymbolTableRecord
100
AcDbBlockTableRecord
  2
*D1
 70
    0
280
    1
281
    0
  0
BLOCK_RECORD
  5
76
330
1
100
AcDbSymbolTableRecord
100
AcDbBlockTableRecord
  2
*D4
 70
    0
280
    1
281
    0
  0
BLOCK_RECORD
  5
79
330
1
100
AcDbSymbolTableRecord
100
AcDbBlockTableRecord
  2
*D3
 70
    0
280
    1
281
    0
  0
BLOCK_RECORD
  5
7C
330
1
100
AcDbSymbolTableRecord
100
AcDbBlockTableRecord
  2
*D5
 70
    0
280
    1
281
    0
  0
BLOCK_RECORD
  5
7F
330
1
100
AcDbSymbolTableRecord
100
AcDbBlockTableRecord
  2
*D10
 70
    0
280
    1
281
    0
  0
ENDTAB
  0
ENDSEC
  0
SECTION
  2
BLOCKS
  0
BLOCK
  5
20
330
1F
100
AcDbEntity
  8
0
100
AcDbBlockBegin
  2
*Model_Space
 70
    0
 10
0
 20
0
 30
0
  3
*Model_Space
  1

  0
ENDBLK
  5
21
330
1F
100
AcDbEntity
  8
0
100
AcDbBlockEnd
  0
BLOCK
  5
1C
330
1B
100
AcDbEntity
  8
0
100
AcDbBlockBegin
  2
*Paper_Space
 70
    0
 10
0
 20
0
 30
0
  3
*Paper_Space
  1

  0
ENDBLK
  5
1D
330
1F
100
AcDbEntity
  8
0
100
AcDbBlockEnd
  0
BLOCK
  5
65
330
64
100
AcDbEntity
  8
0
100
AcDbBlockBegin
  2
*D8
 70
    1
 10
0
 20
0
  3
*D8
  1

  0
LINE
  5
82
100
AcDbEntity
  8
dims
  6
ByBlock
 62
    0
370
   -2
100
AcDbLine
 10
430
 20
222.0107105973271
 11
435.5138888888888
 21
222.0107105973271
  0
SOLID
  5
83
100
AcDbEntity
  8
dims
  6
ByBlock
 62
    0
370
   -2
100
AcDbTrace
 10
430
 20
222.0107105973271
 30
0
 11
432.5
 21
222.4269952550999
 31
0
 12
432.5
 22
221.5944259395542
 32
0
 13
432.5
 23
221.5944259395542
 33
0
  0
SOLID
  5
84
100
AcDbEntity
  8
dims
  6
ByBlock
 62
    0
370
   -2
100
AcDbTrace
 10
447
 20
222.0107105973271
 30
0
 11
444.5
 21
221.5944259395542
 31
0
 12
444.5
 22
222.4269952550999
 32
0
 13
444.5
 23
222.4269952550999
 33
0
  0
LINE
  5
85
100
AcDbEntity
  8
dims
  6
ByBlock
 62
    0
370
   -2
100
AcDbLine
 10
441.486111111111
 20
222.0107105973271
 11
447
 21
222.0107105973271
  0
MTEXT
  5
86
100
AcDbEntity
  8
dims
  6
CONTINUOUS
 62
    0
370
   -2
100
AcDbMText
 10
438.4999999999999
 20
223.8857105973271
 30
0
 40
2.5
 41
4.722222222222222
 71
    5
 72
    1
  1
L14
  7
Standard
210
0
220
0
230
1
 50
0
 73
    2
 44
1
  0
LINE
  5
87
100
AcDbEntity
  8
dims
  6
ByBlock
 62
    0
370
   -2
100
AcDbLine
 10
430
 20
229.375
 11
430
 21
220.7607105973271
  0
LINE
  5
88
100
AcDbEntity
  8
dims
  6
ByBlock
 62
    0
370
   -2
100
AcDbLine
 10
447
 20
229.375
 11
447
 21
220.7607105973271
  0
ENDBLK
  5
66
330
64
100
AcDbEntity
  8
0
100
AcDbBlockEnd
  0
BLOCK
  5
68
330
67
100
AcDbEntity
  8
0
100
AcDbBlockBegin
  2
*D7
 70
    1
 10
0
 20
0
  3
*D7
  1

  0
LINE
  5
89
100
AcDbEntity
  8
dims
  6
ByBlock
 62
    0
370
   -2
100
AcDbLine
 10
76.675144212722
 20
-42.22773646493251
 11
46.21257210636109
 21
-42.22773646493251
  0
SOLID
  5
8A
100
AcDbEntity
  8
dims
  6
ByBlock
 62
    0
370
   -2
100
AcDbTrace
 10
76.675144212722
 20
-42.22773646493251
 30
0
 11
74.175144212722
 21
-42.64402112270535
 31
0
 12
74.175144212722
 22
-41.81145180715967
 32
0
 13
74.175144212722
 23
-41.81145180715967
 33
0
  0
SOLID
  5
8B
100
AcDbEntity
  8
dims
  6
ByBlock
 62
    0
370
   -2
100
AcDbTrace
 10
9.5
 20
-42.22773646493251
 30
0
 11
12
 21
-41.81145180715967
 31
0
 12
12
 22
-42.64402112270535
 32
0
 13
12
 23
-42.64402112270535
 33
0
  0
LINE
  5
8C
100
AcDbEntity
  8
dims
  6
ByBlock
 62
    0
370
   -2
100
AcDbLine
 10
39.96257210636093
 20
-42.22773646493251
 11
9.5
 21
-42.22773646493251
  0
MTEXT
  5
8D
100
AcDbEntity
  8
dims
  6
CONTINUOUS
 62
    0
370
   -2
100
AcDbMText
 10
43.08757210636101
 20
-42.22773646493251
 30
0
 40
2.5
 41
5.000000000000156
 71
    5
 72
    1
  1
L05
  7
Standard
210
0
220
0
230
1
 50
0
 73
    2
 44
1
  0
LINE
  5
8E
100
AcDbEntity
  8
dims
  6
ByBlock
 62
    0
370
   -2
100
AcDbLine
 10
76.675144212722
 20
-34.21257210636096
 11
76.675144212722
 21
-43.47773646493251
  0
LINE
  5
8F
100
AcDbEntity
  8
dims
  6
ByBlock
 62
    0
370
   -2
100
AcDbLine
 10
9.5
 20
-34.21257210636091
 11
9.5
 21
-43.47773646493251
  0
ENDBLK
  5
69
330
67
100
AcDbEntity
  8
0
100
AcDbBlockEnd
  0
BLOCK
  5
6B
330
6A
100
AcDbEntity
  8
0
100
AcDbBlockBegin
  2
*D9
 70
    1
 10
0
 20
0
  3
*D9
  1

  0
LINE
  5
90
100
AcDbEntity
  8
dims
  6
ByBlock
 62
    0
370
   -2
100
AcDbLine
 10
637
 20
-38.64016435857161
 11
625
 21
-38.64016435857161
  0
SOLID
  5
91
100
AcDbEntity
  8
dims
  6
ByBlock
 62
    0
370
   -2
100
AcDbTrace
 10
632
 20
-38.64016435857161
 30
0
 11
634.5
 21
-38.22387970079877
 31
0
 12
634.5
 22
-39.05644901634445
 32
0
 13
634.5
 23
-39.05644901634445
 33
0
  0
SOLID
  5
92
100
AcDbEntity
  8
dims
  6
ByBlock
 62
    0
370
   -2
100
AcDbTrace
 10
630
 20
-38.64016435857161
 30
0
 11
627.5
 21
-39.05644901634445
 31
0
 12
627.5
 22
-38.22387970079877
 32
0
 13
627.5
 23
-38.22387970079877
 33
0
  0
MTEXT
  5
93
100
AcDbEntity
  8
dims
  6
CONTINUOUS
 62
    0
370
   -2
100
AcDbMText
 10
624.312244318182
 20
-38.64016435857161
 30
0
 40
2.5
 41
5.000000000000156
 71
    5
 72
    1
  1
L06
  7
Standard
210
0
220
0
230
1
 50
0
 73
    2
 44
1
  0
LINE
  5
94
100
AcDbEntity
  8
dims
  6
ByBlock
 62
    0
370
   -2
100
AcDbLine
 10
632
 20
-30.625
 11
632
 21
-39.89016435857161
  0
LINE
  5
95
100
AcDbEntity
  8
dims
  6
ByBlock
 62
    0
370
   -2
100
AcDbLine
 10
630
 20
-30.625
 11
630
 21
-39.89016435857161
  0
ENDBLK
  5
6C
330
6A
100
AcDbEntity
  8
0
100
AcDbBlockEnd
  0
BLOCK
  5
6E
330
6D
100
AcDbEntity
  8
0
100
AcDbBlockBegin
  2
*D2
 70
    1
 10
0
 20
0
  3
*D2
  1

  0
LINE
  5
96
100
AcDbEntity
  8
dims
  6
ByBlock
 62
    0
370
   -2
100
AcDbLine
 10
86.17514421272205
 20
185.4332587758478
 11
27.56944444444444
 21
185.4332587758478
  0
SOLID
  5
97
100
AcDbEntity
  8
dims
  6
ByBlock
 62
    0
370
   -2
100
AcDbTrace
 10
86.17514421272205
 20
185.4332587758478
 30
0
 11
83.67514421272205
 21
185.016974118075
 31
0
 12
83.67514421272205
 22
185.8495434336207
 32
0
 13
83.67514421272205
 23
185.8495434336207
 33
0
  0
SOLID
  5
98
100
AcDbEntity
  8
dims
  6
ByBlock
 62
    0
370
   -2
100
AcDbTrace
 10
0
 20
185.4332587758478
 30
0
 11
2.5
 21
185.8495434336207
 31
0
 12
2.5
 22
185.016974118075
 32
0
 13
2.5
 23
185.016974118075
 33
0
  0
LINE
  5
99
100
AcDbEntity
  8
dims
  6
ByBlock
 62
    0
370
   -2
100
AcDbLine
 10
22.43055555555556
 20
185.4332587758478
 11
0
 21
185.4332587758478
  0
MTEXT
  5
9A
100
AcDbEntity
  8
dims
  6
CONTINUOUS
 62
    0
370
   -2
100
AcDbMText
 10
25
 20
185.4332587758478
 30
0
 40
2.5
 41
3.888888888888889
 71
    5
 72
    1
  1
L11
  7
Standard
210
0
220
0
230
1
 50
0
 73
    2
 44
1
  0
LINE
  5
9B
100
AcDbEntity
  8
dims
  6
ByBlock
 62
    0
370
   -2
100
AcDbLine
 10
86.17514421272205
 20
259.375
 11
86.17514421272205
 21
184.1832587758478
  0
LINE
  5
9C
100
AcDbEntity
  8
dims
  6
ByBlock
 62
    0
370
   -2
100
AcDbLine
 10
-1.148106374200643e-16
 20
193.4484231344195
 11
-2.296212748401287e-16
 21
184.1832587758478
  0
ENDBLK
  5
6F
330
6D
100
AcDbEntity
  8
0
100
AcDbBlockEnd
  0
BLOCK
  5
71
330
70
100
AcDbEntity
  8
0
100
AcDbBlockBegin
  2
*D6
 70
    1
 10
0
 20
0
  3
*D6
  1

  0
LINE
  5
9D
100
AcDbEntity
  8
dims
  6
ByBlock
 62
    0
370
   -2
100
AcDbLine
 10
-8.015164358571615
 20
-33.5875721063609
 11
-8.015164358571614
 21
-18.66878605318042
  0
SOLID
  5
9E
100
AcDbEntity
  8
dims
  6
ByBlock
 62
    0
370
   -2
100
AcDbTrace
 10
-8.015164358571615
 20
-33.5875721063609
 30
0
 11
-8.431449016344455
 21
-31.0875721063609
 31
0
 12
-7.598879700798775
 22
-31.0875721063609
 32
0
 13
-7.598879700798775
 23
-31.0875721063609
 33
0
  0
SOLID
  5
9F
100
AcDbEntity
  8
dims
  6
ByBlock
 62
    0
370
   -2
100
AcDbTrace
 10
-8.01516435857161
 20
5.112377920272658e-14
 30
0
 11
-7.598879700798769
 21
-2.499999999999949
 31
0
 12
-8.43144901634445
 22
-2.499999999999949
 32
0
 13
-8.43144901634445
 23
-2.499999999999949
 33
0
  0
LINE
  5
A0
100
AcDbEntity
  8
dims
  6
ByBlock
 62
    0
370
   -2
100
AcDbLine
 10
-8.015164358571612
 20
-14.91878605318042
 11
-8.01516435857161
 21
5.112377920272658e-14
  0
MTEXT
  5
A1
100
AcDbEntity
  8
dims
  6
CONTINUOUS
 62
    0
370
   -2
100
AcDbMText
 10
-8.01516435857161
 20
-16.79378605318042
 30
0
 40
2.5
 41
5.277777777777778
 71
    5
 72
    1
  1
L04
  7
Standard
210
0
220
0
230
1
 50
0
 73
    2
 44
1
  0
LINE
  5
A2
100
AcDbEntity
  8
dims
  6
ByBlock
 62
    0
370
   -2
100
AcDbLine
 10
8.875000000000028
 20
-33.58757210636091
 11
-9.265164358571615
 21
-33.5875721063609
  0
LINE
  5
A3
100
AcDbEntity
  8
dims
  6
ByBlock
 62
    0
370
   -2
100
AcDbLine
 10
-0.625
 20
4.977654042494671e-14
 11
-9.26516435857161
 21
5.127686005262e-14
  0
ENDBLK
  5
72
330
70
100
AcDbEntity
  8
0
100
AcDbBlockEnd
  0
BLOCK
  5
74
330
73
100
AcDbEntity
  8
0
100
AcDbBlockBegin
  2
*D1
 70
    1
 10
0
 20
0
  3
*D1
  1

  0
LINE
  5
A4
100
AcDbEntity
  8
dims
  6
ByBlock
 62
    0
370
   -2
100
AcDbLine
 10
-4.999999999999999
 20
-63.69522183589561
 11
-0.3472222222222232
 21
-63.69522183589561
  0
SOLID
  5
A5
100
AcDbEntity
  8
dims
  6
ByBlock
 62
    0
370
   -2
100
AcDbTrace
 10
8.881784197001252e-16
 20
-63.69522183589561
 30
0
 11
-2.499999999999999
 21
-64.11150649366844
 31
0
 12
-2.499999999999999
 22
-63.27893717812277
 32
0
 13
-2.499999999999999
 23
-63.27893717812277
 33
0
  0
SOLID
  5
A6
100
AcDbEntity
  8
dims
  6
ByBlock
 62
    0
370
   -2
100
AcDbTrace
 10
5
 20
-63.69522183589561
 30
0
 11
7.5
 21
-63.27893717812277
 31
0
 12
7.5
 22
-64.11150649366844
 32
0
 13
7.5
 23
-64.11150649366844
 33
0
  0
LINE
  5
A7
100
AcDbEntity
  8
dims
  6
ByBlock
 62
    0
370
   -2
100
AcDbLine
 10
5.347222222222221
 20
-63.69522183589561
 11
10
 21
-63.69522183589561
  0
MTEXT
  5
A8
100
AcDbEntity
  8
dims
  6
CONTINUOUS
 62
    0
370
   -2
100
AcDbMText
 10
2.499999999999999
 20
-61.82022183589561
 30
0
 40
2.5
 41
4.444444444444445
 71
    5
 72
    1
  1
L01
  7
Standard
210
0
220
0
230
1
 50
0
 73
    2
 44
1
  0
LINE
  5
A9
100
AcDbEntity
  8
dims
  6
ByBlock
 62
    0
370
   -2
100
AcDbLine
 10
-1.148106374200643e-16
 20
-53.97641742985388
 11
6.585571448599965e-16
 21
-64.94522183589561
  0
LINE
  5
AA
100
AcDbEntity
  8
dims
  6
ByBlock
 62
    0
370
   -2
100
AcDbLine
 10
5
 20
-53.97641742985388
 11
5
 21
-64.94522183589561
  0
ENDBLK
  5
75
330
73
100
AcDbEntity
  8
0
100
AcDbBlockEnd
  0
BLOCK
  5
77
330
76
100
AcDbEntity
  8
0
100
AcDbBlockBegin
  2
*D4
 70
    1
 10
0
 20
0
  3
*D4
  1

  0
LINE
  5
AB
100
AcDbEntity
  8
dims
  6
ByBlock
 62
    0
370
   -2
100
AcDbLine
 10
240
 20
186.0841337317466
 11
313.2114636213297
 21
186.0841337317466
  0
SOLID
  5
AC
100
AcDbEntity
  8
dims
  6
ByBlock
 62
    0
370
   -2
100
AcDbTrace
 10
240
 20
186.0841337317466
 30
0
 11
242.5
 21
186.5004183895194
 31
0
 12
242.5
 22
185.6678490739737
 32
0
 13
242.5
 23
185.6678490739737
 33
0
  0
SOLID
  5
AD
100
AcDbEntity
  8
dims
  6
ByBlock
 62
    0
370
   -2
100
AcDbTrace
 10
392.1173716871039
 20
186.0841337317466
 30
0
 11
389.6173716871039
 21
185.6678490739737
 31
0
 12
389.6173716871039
 22
186.5004183895194
 32
0
 13
389.6173716871039
 23
186.5004183895194
 33
0
  0
LINE
  5
AE
100
AcDbEntity
  8
dims
  6
ByBlock
 62
    0
370
   -2
100
AcDbLine
 10
318.9059080657742
 20
186.0841337317466
 11
392.1173716871039
 21
186.0841337317466
  0
MTEXT
  5
AF
100
AcDbEntity
  8
dims
  6
CONTINUOUS
 62
    0
370
   -2
100
AcDbMText
 10
316.0586858435519
 20
187.9591337317466
 30
0
 40
2.5
 41
4.444444444444445
 71
    5
 72
    1
  1
L12
  7
Standard
210
0
220
0
230
1
 50
0
 73
    2
 44
1
  0
LINE
  5
B0
100
AcDbEntity
  8
dims
  6
ByBlock
 62
    0
370
   -2
100
AcDbLine
 10
240
 20
193.4484231344195
 11
240
 21
184.8341337317466
  0
LINE
  5
B1
100
AcDbEntity
  8
dims
  6
ByBlock
 62
    0
370
   -2
100
AcDbLine
 10
392.1173716871039
 20
193.4484231344194
 11
392.1173716871039
 21
184.8341337317466
  0
ENDBLK
  5
78
330
76
100
AcDbEntity
  8
0
100
AcDbBlockEnd
  0
BLOCK
  5
7A
330
79
100
AcDbEntity
  8
0
100
AcDbBlockBegin
  2
*D3
 70
    1
 10
0
 20
0
  3
*D3
  1

  0
LINE
  5
B2
100
AcDbEntity
  8
dims
  6
ByBlock
 62
    0
370
   -2
100
AcDbLine
 10
286.4406584421099
 20
-56.7588522753565
 11
259.5656584421099
 21
-56.7588522753565
  0
SOLID
  5
B3
100
AcDbEntity
  8
dims
  6
ByBlock
 62
    0
370
   -2
100
AcDbTrace
 10
286.4406584421099
 20
-56.7588522753565
 30
0
 11
283.9406584421099
 21
-57.17513693312934
 31
0
 12
283.9406584421099
 22
-56.34256761758366
 32
0
 13
283.9406584421099
 23
-56.34256761758366
 33
0
  0
SOLID
  5
B4
100
AcDbEntity
  8
dims
  6
ByBlock
 62
    0
370
   -2
100
AcDbTrace
 10
226.4406584421099
 20
-56.7588522753565
 30
0
 11
228.9406584421099
 21
-56.34256761758366
 31
0
 12
228.9406584421099
 22
-57.17513693312934
 32
0
 13
228.9406584421099
 23
-57.17513693312934
 33
0
  0
LINE
  5
B5
100
AcDbEntity
  8
dims
  6
ByBlock
 62
    0
370
   -2
100
AcDbLine
 10
253.3156584421099
 20
-56.7588522753565
 11
226.4406584421099
 21
-56.7588522753565
  0
MTEXT
  5
B6
100
AcDbEntity
  8
dims
  6
CONTINUOUS
 62
    0
370
   -2
100
AcDbMText
 10
256.4406584421099
 20
-54.8838522753565
 30
0
 40
2.5
 41
5
 71
    5
 72
    1
  1
L02
  7
Standard
210
0
220
0
230
1
 50
0
 73
    2
 44
1
  0
LINE
  5
B7
100
AcDbEntity
  8
dims
  6
ByBlock
 62
    0
370
   -2
100
AcDbLine
 10
286.4406584421099
 20
-49.39456287268376
 11
286.4406584421099
 21
-58.0088522753565
  0
LINE
  5
B8
100
AcDbEntity
  8
dims
  6
ByBlock
 62
    0
370
   -2
100
AcDbLine
 10
226.4406584421099
 20
-49.39456287268376
 11
226.4406584421099
 21
-58.0088522753565
  0
ENDBLK
  5
7B
330
79
100
AcDbEntity
  8
0
100
AcDbBlockEnd
  0
BLOCK
  5
7D
330
7C
100
AcDbEntity
  8
0
100
AcDbBlockBegin
  2
*D5
 70
    1
 10
0
 20
0
  3
*D5
  1

  0
LINE
  5
B9
100
AcDbEntity
  8
dims
  6
ByBlock
 62
    0
370
   -2
100
AcDbLine
 10
325
 20
222.0107105973271
 11
337
 21
222.0107105973271
  0
SOLID
  5
BA
100
AcDbEntity
  8
dims
  6
ByBlock
 62
    0
370
   -2
100
AcDbTrace
 10
330
 20
222.0107105973271
 30
0
 11
327.5
 21
221.5944259395542
 31
0
 12
327.5
 22
222.4269952550999
 32
0
 13
327.5
 23
222.4269952550999
 33
0
  0
SOLID
  5
BB
100
AcDbEntity
  8
dims
  6
ByBlock
 62
    0
370
   -2
100
AcDbTrace
 10
332
 20
222.0107105973271
 30
0
 11
334.5
 21
222.4269952550999
 31
0
 12
334.5
 22
221.5944259395542
 32
0
 13
334.5
 23
221.5944259395542
 33
0
  0
MTEXT
  5
BC
100
AcDbEntity
  8
dims
  6
CONTINUOUS
 62
    0
370
   -2
100
AcDbMText
 10
343.3951625631313
 20
223.8857105973271
 30
0
 40
2.5
 41
4.444444444444599
 71
    5
 72
    1
  1
L13
  7
Standard
210
0
220
0
230
1
 50
0
 73
    2
 44
1
  0
LINE
  5
BD
100
AcDbEntity
  8
dims
  6
ByBlock
 62
    0
370
   -2
100
AcDbLine
 10
330
 20
229.375
 11
330
 21
220.7607105973271
  0
LINE
  5
BE
100
AcDbEntity
  8
dims
  6
ByBlock
 62
    0
370
   -2
100
AcDbLine
 10
332
 20
229.375
 11
332
 21
220.7607105973271
  0
ENDBLK
  5
7E
330
7C
100
AcDbEntity
  8
0
100
AcDbBlockEnd
  0
BLOCK
  5
80
330
7F
100
AcDbEntity
  8
0
100
AcDbBlockBegin
  2
*D10
 70
    1
 10
0
 20
0
  3
*D10
  1

  0
LINE
  5
BF
100
AcDbEntity
  8
dims
  6
ByBlock
 62
    0
370
   -2
100
AcDbLine
 10
9.500000000000028
 20
-42.22773646493251
 11
7.875000000000091
 21
-42.22773646493251
  0
SOLID
  5
C0
100
AcDbEntity
  8
dims
  6
ByBlock
 62
    0
370
   -2
100
AcDbTrace
 10
9.500000000000028
 20
-42.22773646493251
 30
0
 11
7.000000000000028
 21
-42.64402112270535
 31
0
 12
7.000000000000028
 22
-41.81145180715967
 32
0
 13
7.000000000000028
 23
-41.81145180715967
 33
0
  0
SOLID
  5
C1
100
AcDbEntity
  8
dims
  6
ByBlock
 62
    0
370
   -2
100
AcDbTrace
 10
0
 20
-42.22773646493251
 30
0
 11
2.5
 21
-41.81145180715967
 31
0
 12
2.5
 22
-42.64402112270535
 32
0
 13
2.5
 23
-42.64402112270535
 33
0
  0
LINE
  5
C2
100
AcDbEntity
  8
dims
  6
ByBlock
 62
    0
370
   -2
100
AcDbLine
 10
1.624999999999934
 20
-42.22773646493251
 11
0
 21
-42.22773646493251
  0
MTEXT
  5
C3
100
AcDbEntity
  8
dims
  6
CONTINUOUS
 62
    0
370
   -2
100
AcDbMText
 10
4.750000000000012
 20
-42.22773646493251
 30
0
 40
2.5
 41
5.000000000000156
 71
    5
 72
    1
  1
L03
  7
Standard
210
0
220
0
230
1
 50
0
 73
    2
 44
1
  0
LINE
  5
C4
100
AcDbEntity
  8
dims
  6
ByBlock
 62
    0
370
   -2
100
AcDbLine
 10
9.500000000000028
 20
-34.21257210636091
 11
9.500000000000028
 21
-43.47773646493251
  0
LINE
  5
C5
100
AcDbEntity
  8
dims
  6
ByBlock
 62
    0
370
   -2
100
AcDbLine
 10
-1.148106374200643e-16
 20
-0.625
 11
-2.296212748401287e-16
 21
-43.47773646493251
  0
ENDBLK
  5
81
330
7F
100
AcDbEntity
  8
0
100
AcDbBlockEnd
  0
ENDSEC
  0
SECTION
  2
ENTITIES
  0
DIMENSION
  5
C6
100
AcDbEntity
  8
dims
  6
ByLayer
 62
  256
370
   -1
100
AcDbDimension
  2
*D1
 10
4.999999999999999
 20
-63.69522183589561
 30
0
 11
2.499999999999999
 21
-61.82022183589561
 31
0
 70
   32
  1
L01
 71
    5
  3
Standard
 53
0
210
0
220
0
230
1
100
AcDbAlignedDimension
 13
0
 23
-53.35141742985388
 33
0
 14
5
 24
-53.35141742985388
 34
0
100
AcDbRotatedDimension
  0
LINE
  5
C7
100
AcDbEntity
  8
dims
  6
CONTINUOUS
 62
  256
370
   -1
100
AcDbLine
 10
0
 20
-53.35141742985388
 11
5
 21
-53.35141742985388
  0
LINE
  5
C8
100
AcDbEntity
  8
dims
  6
CONTINUOUS
 62
  256
370
   -1
100
AcDbLine
 10
0
 20
-53.35141742985388
 11
0
 21
-48.24746043403343
  0
LINE
  5
C9
100
AcDbEntity
  8
panel11
  6
CONTINUOUS
 62
  256
370
   -1
100
AcDbLine
 10
0
 20
260
 11
86.17514421272205
 21
260
  0
LINE
  5
CA
100
AcDbEntity
  8
0
  6
CONTINUOUS
 62
  256
370
   -1
100
AcDbLine
 10
330
 20
0
 11
330
 21
260
  0
LINE
  5
CB
100
AcDbEntity
  8
0
  6
CONTINUOUS
 62
  256
370
   -1
100
AcDbLine
 10
240
 20
0
 11
240
 21
277
  0
LINE
  5
CC
100
AcDbEntity
  8
0
  6
CONTINUOUS
 62
  256
370
   -1
100
AcDbLine
 10
0
 20
0
 11
0
 21
260
  0
LINE
  5
CD
100
AcDbEntity
  8
base01
  6
ByLayer
 62
  256
370
   -1
100
AcDbLine
 10
-5
 20
5
 11
5
 21
-5
  0
LINE
  5
CE
100
AcDbEntity
  8
base01
  6
ByLayer
 62
  256
370
   -1
100
AcDbLine
 10
5
 20
5
 11
-5
 21
-5
  0
DIMENSION
  5
CF
100
AcDbEntity
  8
dims
  6
ByLayer
 62
  256
370
   -1
100
AcDbDimension
  2
*D2
 10
-5e-16
 20
185.4332587758478
 30
0
 11
25
 21
185.4332587758478
 31
0
 70
   32
  1
L11
 71
    5
  3
Standard
 53
0
210
0
220
0
230
1
100
AcDbAlignedDimension
 13
86.17514421272205
 23
260
 33
0
 14
0
 24
194.0734231344195
 34
0
100
AcDbRotatedDimension
  0
LINE
  5
D0
100
AcDbEntity
  8
base11
  6
ByLayer
 62
  256
370
   -1
100
AcDbLine
 10
5
 20
265
 11
-5
 21
255
  0
LINE
  5
D1
100
AcDbEntity
  8
base11
  6
ByLayer
 62
  256
370
   -1
100
AcDbLine
 10
-5
 20
265
 11
5
 21
255
  0
LINE
  5
D2
100
AcDbEntity
  8
dims
  6
CONTINUOUS
 62
  256
370
   -1
100
AcDbLine
 10
0
 20
194.0734231344195
 11
0
 21
200.3181481718049
  0
DIMENSION
  5
D3
100
AcDbEntity
  8
dims
  6
ByLayer
 62
  256
370
   -1
100
AcDbDimension
  2
*D3
 10
226.4406584421099
 20
-56.7588522753565
 30
0
 11
256.4406584421099
 21
-54.8838522753565
 31
0
 70
   32
  1
L02
 71
    5
  3
Standard
 53
0
210
0
220
0
230
1
100
AcDbAlignedDimension
 13
286.4406584421099
 23
-48.76956287268376
 33
0
 14
226.4406584421099
 24
-48.76956287268376
 34
0
100
AcDbRotatedDimension
  0
LINE
  5
D4
100
AcDbEntity
  8
dims
  6
CONTINUOUS
 62
  256
370
   -1
100
AcDbLine
 10
226.4406584421099
 20
-48.76956287268376
 11
226.4406584421099
 21
-43.66560587686331
  0
LINE
  5
D5
100
AcDbEntity
  8
dims
  6
CONTINUOUS
 62
  256
370
   -1
100
AcDbLine
 10
226.4406584421099
 20
-48.76956287268376
 11
286.4406584421099
 21
-48.76956287268376
  0
LINE
  5
D6
100
AcDbEntity
  8
base02
  6
ByLayer
 62
  256
370
   -1
100
AcDbLine
 10
245
 20
-5
 11
235
 21
5
  0
LINE
  5
D7
100
AcDbEntity
  8
base03
  6
ByLayer
 62
  256
370
   -1
100
AcDbLine
 10
335
 20
-5
 11
325
 21
5
  0
LINE
  5
D8
100
AcDbEntity
  8
base03
  6
ByLayer
 62
  256
370
   -1
100
AcDbLine
 10
325
 20
-5
 11
335
 21
5
  0
LINE
  5
D9
100
AcDbEntity
  8
base12
  6
ByLayer
 62
  256
370
   -1
100
AcDbLine
 10
244.9999999999997
 20
265
 11
234.9999999999997
 21
255.0000000000001
  0
LINE
  5
DA
100
AcDbEntity
  8
base12
  6
ByLayer
 62
  256
370
   -1
100
AcDbLine
 10
244.9999999999997
 20
255.0000000000001
 11
234.9999999999997
 21
265
  0
DIMENSION
  5
DB
100
AcDbEntity
  8
dims
  6
ByLayer
 62
  256
370
   -1
100
AcDbDimension
  2
*D4
 10
392.1173716871039
 20
186.0841337317466
 30
0
 11
316.0586858435519
 21
187.9591337317466
 31
0
 70
   32
  1
L12
 71
    5
  3
Standard
 53
0
210
0
220
0
230
1
100
AcDbAlignedDimension
 13
240
 23
194.0734231344195
 33
0
 14
392.1173716871039
 24
194.0734231344194
 34
0
100
AcDbRotatedDimension
  0
DIMENSION
  5
DC
100
AcDbEntity
  8
dims
  6
ByLayer
 62
  256
370
   -1
100
AcDbDimension
  2
*D5
 10
332
 20
222.0107105973271
 30
0
 11
339.547940340909
 21
223.8857105973271
 31
0
 70
   32
  1
L13
 71
    5
  3
Standard
 53
0
210
0
220
0
230
1
100
AcDbAlignedDimension
 13
330
 23
230
 33
0
 14
332
 24
230
 34
0
100
AcDbRotatedDimension
  0
LINE
  5
DD
100
AcDbEntity
  8
base13
  6
ByLayer
 62
  256
370
   -1
100
AcDbLine
 10
335
 20
255
 11
325
 21
264.9999999999999
  0
LINE
  5
DE
100
AcDbEntity
  8
base13
  6
ByLayer
 62
  256
370
   -1
100
AcDbLine
 10
335
 20
264.9999999999999
 11
325
 21
255
  0
LINE
  5
DF
100
AcDbEntity
  8
0
  6
CONTINUOUS
 62
  256
370
   -1
100
AcDbLine
 10
630
 20
0
 11
630
 21
260
  0
LINE
  5
E0
100
AcDbEntity
  8
0
  6
CONTINUOUS
 62
  256
370
   -1
100
AcDbLine
 10
530
 20
0
 11
530
 21
260
  0
LINE
  5
E1
100
AcDbEntity
  8
0
  6
CONTINUOUS
 62
  256
370
   -1
100
AcDbLine
 10
430
 20
0
 11
430
 21
260
  0
LINE
  5
E2
100
AcDbEntity
  8
0
  6
CONTINUOUS
 62
  256
370
   -1
100
AcDbLine
 10
630
 20
0
 11
630
 21
260
  0
DIMENSION
  5
E3
100
AcDbEntity
  8
dims
  6
ByLayer
 62
  256
370
   -1
100
AcDbDimension
  2
*D6
 10
-8.01516435857161
 20
5.2e-14
 30
0
 11
-8.01516435857161
 21
-16.79378605318042
 31
0
 70
   32
  1
L04
 71
    5
  3
Standard
 53
0
210
0
220
0
230
1
100
AcDbAlignedDimension
 13
9.500000000000028
 23
-33.58757210636091
 33
0
 14
0
 24
4.97e-14
 34
0
 50
270
100
AcDbRotatedDimension
  0
LINE
  5
E4
100
AcDbEntity
  8
base04
  6
ByLayer
 62
  256
370
   -1
100
AcDbLine
 10
425
 20
5
 11
435
 21
-5
  0
LINE
  5
E5
100
AcDbEntity
  8
base04
  6
ByLayer
 62
  256
370
   -1
100
AcDbLine
 10
435
 20
5
 11
425
 21
-5
  0
DIMENSION
  5
E6
100
AcDbEntity
  8
dims
  6
ByLayer
 62
  256
370
   -1
100
AcDbDimension
  2
*D7
 10
9.5
 20
-42.22773646493251
 30
0
 11
43.08757210636101
 21
-42.22773646493251
 31
0
 70
   32
  1
L05
 71
    5
  3
Standard
 53
0
210
0
220
0
230
1
100
AcDbAlignedDimension
 13
76.675144212722
 23
-33.58757210636096
 33
0
 14
9.5
 24
-33.58757210636091
 34
0
100
AcDbRotatedDimension
  0
LINE
  5
E7
100
AcDbEntity
  8
base05
  6
ByLayer
 62
  256
370
   -1
100
AcDbLine
 10
535
 20
5
 11
525
 21
-5
  0
LINE
  5
E8
100
AcDbEntity
  8
base05
  6
ByLayer
 62
  256
370
   -1
100
AcDbLine
 10
525
 20
5
 11
535
 21
-5
  0
LINE
  5
E9
100
AcDbEntity
  8
base14
  6
ByLayer
 62
  256
370
   -1
100
AcDbLine
 10
425
 20
265
 11
435
 21
255
  0
LINE
  5
EA
100
AcDbEntity
  8
base14
  6
ByLayer
 62
  256
370
   -1
100
AcDbLine
 10
435
 20
265
 11
425
 21
255
  0
DIMENSION
  5
EB
100
AcDbEntity
  8
dims
  6
ByLayer
 62
  256
370
   -1
100
AcDbDimension
  2
*D8
 10
447
 20
222.0107105973271
 30
0
 11
438.4999999999999
 21
223.8857105973271
 31
0
 70
   32
  1
L14
 71
    5
  3
Standard
 53
0
210
0
220
0
230
1
100
AcDbAlignedDimension
 13
430
 23
230
 33
0
 14
447
 24
230
 34
0
100
AcDbRotatedDimension
  0
LINE
  5
EC
100
AcDbEntity
  8
dims
  6
CONTINUOUS
 62
  256
370
   -1
100
AcDbLine
 10
430
 20
230
 11
447
 21
230
  0
LINE
  5
ED
100
AcDbEntity
  8
dims
  6
CONTINUOUS
 62
  256
370
   -1
100
AcDbLine
 10
430
 20
230
 11
430
 21
235.1039569958204
  0
LINE
  5
EE
100
AcDbEntity
  8
dims
  6
CONTINUOUS
 62
  256
370
   -1
100
AcDbLine
 10
447
 20
230
 11
447
 21
235.1039569958204
  0
DIMENSION
  5
EF
100
AcDbEntity
  8
dims
  6
ByLayer
 62
  256
370
   -1
100
AcDbDimension
  2
*D9
 10
630
 20
-38.64016435857161
 30
0
 11
620.1872443181819
 21
-38.64016435857161
 31
0
 70
   32
  1
L06
 71
    5
  3
Standard
 53
0
210
0
220
0
230
1
100
AcDbAlignedDimension
 13
632
 23
-30
 33
0
 14
630
 24
-30
 34
0
100
AcDbRotatedDimension
  0
LINE
  5
F0
100
AcDbEntity
  8
dims
  6
CONTINUOUS
 62
  256
370
   -1
100
AcDbLine
 10
632
 20
-30
 11
632
 21
-23.75527496261452
  0
LINE
  5
F1
100
AcDbEntity
  8
dims
  6
CONTINUOUS
 62
  256
370
   -1
100
AcDbLine
 10
632
 20
-30
 11
632
 21
-23.75527496261452
  0
LINE
  5
F2
100
AcDbEntity
  8
dims
  6
CONTINUOUS
 62
  256
370
   -1
100
AcDbLine
 10
630
 20
-30
 11
630
 21
-23.75527496261452
  0
LINE
  5
F3
100
AcDbEntity
  8
dims
  6
CONTINUOUS
 62
  256
370
   -1
100
AcDbLine
 10
630
 20
-30
 11
632
 21
-30
  0
LINE
  5
F4
100
AcDbEntity
  8
base06
  6
ByLayer
 62
  256
370
   -1
100
AcDbLine
 10
635
 20
5
 11
625
 21
-5
  0
LINE
  5
F5
100
AcDbEntity
  8
base06
  6
ByLayer
 62
  256
370
   -1
100
AcDbLine
 10
625
 20
5
 11
635
 21
-5
  0
LINE
  5
F6
100
AcDbEntity
  8
dims
  6
CONTINUOUS
 62
  256
370
   -1
100
AcDbLine
 10
332
 20
230
 11
332
 21
235.1039569958204
  0
LINE
  5
F7
100
AcDbEntity
  8
base02
  6
ByLayer
 62
  256
370
   -1
100
AcDbLine
 10
245
 20
5
 11
235
 21
-5
  0
LINE
  5
F8
100
AcDbEntity
  8
dims
  6
CONTINUOUS
 62
  256
370
   -1
100
AcDbLine
 10
240
 20
194.0734231344194
 11
240
 21
199.1773801302399
  0
LINE
  5
F9
100
AcDbEntity
  8
dims
  6
CONTINUOUS
 62
  256
370
   -1
100
AcDbLine
 10
330
 20
229.9999999999999
 11
330
 21
235.1039569958204
  0
LINE
  5
FA
100
AcDbEntity
  8
0
  6
CONTINUOUS
 62
  256
370
   -1
100
AcDbLine
 10
-15
 20
0
 11
630
 21
0
  0
LINE
  5
FB
100
AcDbEntity
  8
dims
  6
CONTINUOUS
 62
  256
370
   -1
100
AcDbLine
 10
5
 20
-53.35141742985388
 11
5
 21
-48.24746043403343
  0
LINE
  5
FC
100
AcDbEntity
  8
Defpoints
  6
CONTINUOUS
 62
  256
370
   -1
100
AcDbLine
 10
-238.1422262787712
 20
-83.2820161481568
 11
-77.60244499406326
 21
-83.2820161481568
  0
LINE
  5
FD
100
AcDbEntity
  8
Defpoints
  6
CONTINUOUS
 62
  256
370
   -1
100
AcDbLine
 10
-196.4227600995414
 20
-68.28201614815681
 11
-110.2476158868193
 21
-68.28201614815681
  0
LINE
  5
FE
100
AcDbEntity
  8
Defpoints
  6
CONTINUOUS
 62
  256
370
   -1
100
AcDbLine
 10
-196.4227600995414
 20
-98.28201614815681
 11
-110.2476158868193
 21
-98.28201614815684
  0
LINE
  5
FF
100
AcDbEntity
  8
Defpoints
  6
CONTINUOUS
 62
  256
370
   -1
100
AcDbLine
 10
-110.2476158868193
 20
-98.28201614815681
 11
-110.2476158868193
 21
-68.28201614815681
  0
LINE
  5
100
100
AcDbEntity
  8
Defpoints
  6
CONTINUOUS
 62
  256
370
   -1
100
AcDbLine
 10
-196.4227600995414
 20
-98.28201614815681
 11
-196.4227600995414
 21
-68.28201614815681
  0
ARC
  5
101
100
AcDbEntity
  8
Defpoints
  6
CONTINUOUS
 62
  256
370
   -1
100
AcDbCircle
 10
-110.6882641229729
 20
-83.2820161481568
 40
15.00647096648725
100
AcDbArc
 50
271.68266835281
 51
88.31733164718993
  0
ARC
  5
102
100
AcDbEntity
  8
Defpoints
  6
CONTINUOUS
 62
  256
370
   -1
100
AcDbCircle
 10
-186.9227600995413
 20
-49.6944440417958
 40
9.5
100
AcDbArc
 50
90
 51
180
  0
ARC
  5
103
100
AcDbEntity
  8
Defpoints
  6
CONTINUOUS
 62
  256
370
   -1
100
AcDbCircle
 10
-119.7476158868193
 20
-49.69444404179578
 40
9.5
100
AcDbArc
 50
0
 51
89.99999999999991
  0
ARC
  5
104
100
AcDbEntity
  8
Defpoints
  6
CONTINUOUS
 62
  256
370
   -1
100
AcDbCircle
 10
-119.7476158868193
 20
-116.8695882545177
 40
9.5
100
AcDbArc
 50
270.0000000000001
 51
0
  0
ARC
  5
105
100
AcDbEntity
  8
Defpoints
  6
CONTINUOUS
 62
  256
370
   -1
100
AcDbCircle
 10
-186.9227600995413
 20
-116.8695882545177
 40
9.5
100
AcDbArc
 50
180
 51
270
  0
LINE
  5
106
100
AcDbEntity
  8
Defpoints
  6
CONTINUOUS
 62
  256
370
   -1
100
AcDbLine
 10
-196.4227600995413
 20
-108.7504497899753
 11
-196.4227600995414
 21
-57.81358250633836
  0
ARC
  5
107
100
AcDbEntity
  8
Defpoints
  6
CONTINUOUS
 62
  256
370
   -1
100
AcDbCircle
 10
-315.0199823217638
 20
-83.2820161481568
 40
127.5972222222224
100
AcDbArc
 50
348.1634228459085
 51
11.8365771540915
  0
LINE
  5
108
100
AcDbEntity
  8
Defpoints
  6
CONTINUOUS
 62
  256
370
   -1
100
AcDbLine
 10
-194.1612957936225
 20
-54.90590903282588
 11
-193.8106512964822
 21
-54.81684694265986
  0
LINE
  5
109
100
AcDbEntity
  8
Defpoints
  6
CONTINUOUS
 62
  256
370
   -1
100
AcDbLine
 10
-194.1612957936224
 20
-111.6581232634877
 11
-193.8106512964822
 21
-111.7471853536537
  0
ARC
  5
10A
100
AcDbEntity
  8
Defpoints
  6
CONTINUOUS
 62
  256
370
   -1
100
AcDbCircle
 10
-193.072115602401
 20
-57.72452041617231
 40
3
100
AcDbArc
 50
11.83657715409146
 51
104.2514939314361
  0
ARC
  5
10B
100
AcDbEntity
  8
Defpoints
  6
CONTINUOUS
 62
  256
370
   -1
100
AcDbCircle
 10
-193.4227600995414
 20
-57.81358250633835
 40
3
100
AcDbArc
 50
104.2514939314357
 51
180.0000000000001
  0
ARC
  5
10C
100
AcDbEntity
  8
Defpoints
  6
CONTINUOUS
 62
  256
370
   -1
100
AcDbCircle
 10
-193.072115602401
 20
-108.8395118801412
 40
3
100
AcDbArc
 50
255.748506068564
 51
348.1634228459082
  0
ARC
  5
10D
100
AcDbEntity
  8
Defpoints
  6
CONTINUOUS
 62
  256
370
   -1
100
AcDbCircle
 10
-193.4227600995413
 20
-108.7504497899753
 40
3
100
AcDbArc
 50
180.0000000000001
 51
255.748506068564
  0
LINE
  5
10E
100
AcDbEntity
  8
Defpoints
  6
CONTINUOUS
 62
  256
370
   -1
100
AcDbLine
 10
-196.4227600995414
 20
-49.6944440417958
 11
-196.4227600995414
 21
-116.8695882545177
  0
LINE
  5
10F
100
AcDbEntity
  8
Defpoints
  6
CONTINUOUS
 62
  256
370
   -1
100
AcDbLine
 10
-110.2476158868193
 20
-49.6944440417958
 11
-110.2476158868193
 21
-116.8695882545177
  0
LINE
  5
110
100
AcDbEntity
  8
Defpoints
  6
CONTINUOUS
 62
  256
370
   -1
100
AcDbLine
 10
-119.7476158868193
 20
-40.1944440417958
 11
-186.9227600995413
 21
-40.19444404179575
  0
LINE
  5
111
100
AcDbEntity
  8
Defpoints
  6
CONTINUOUS
 62
  256
370
   -1
100
AcDbLine
 10
-119.7476158868193
 20
-126.3695882545178
 11
-186.9227600995413
 21
-126.3695882545178
  0
CIRCLE
  5
112
100
AcDbEntity
  8
Defpoints
  6
CONTINUOUS
 62
  256
370
   -1
100
AcDbCircle
 10
-119.7476158868193
 20
-49.69444404179578
 40
2
  0
CIRCLE
  5
113
100
AcDbEntity
  8
Defpoints
  6
CONTINUOUS
 62
  256
370
   -1
100
AcDbCircle
 10
-119.7476158868193
 20
-116.8695882545177
 40
2
  0
CIRCLE
  5
114
100
AcDbEntity
  8
Defpoints
  6
CONTINUOUS
 62
  256
370
   -1
100
AcDbCircle
 10
-186.9227600995413
 20
-116.8695882545177
 40
2
  0
CIRCLE
  5
115
100
AcDbEntity
  8
Defpoints
  6
CONTINUOUS
 62
  256
370
   -1
100
AcDbCircle
 10
-186.9227600995413
 20
-49.6944440417958
 40
2
  0
ARC
  5
116
100
AcDbEntity
  8
panel01
  6
CONTINUOUS
 62
  256
370
   -1
100
AcDbCircle
 10
76.67514421272205
 20
33.58757210636104
 40
9.5
100
AcDbArc
 50
0
 51
89.99999999999991
  0
ARC
  5
117
100
AcDbEntity
  8
panel01
  6
CONTINUOUS
 62
  256
370
   -1
100
AcDbCircle
 10
9.5
 20
33.58757210636102
 40
9.5
100
AcDbArc
 50
90
 51
180
  0
LINE
  5
118
100
AcDbEntity
  8
panel01
  6
CONTINUOUS
 62
  256
370
   -1
100
AcDbLine
 10
86.17514421272205
 20
33.58757210636102
 11
86.17514421272205
 21
-33.58757210636092
  0
LINE
  5
119
100
AcDbEntity
  8
panel01
  6
CONTINUOUS
 62
  256
370
   -1
100
AcDbLine
 10
0
 20
33.58757210636102
 11
0
 21
-33.58757210636092
  0
LINE
  5
11A
100
AcDbEntity
  8
panel01
  6
CONTINUOUS
 62
  256
370
   -1
100
AcDbLine
 10
76.67514421272203
 20
-43.08757210636096
 11
9.500000000000085
 21
-43.08757210636102
  0
ARC
  5
11B
100
AcDbEntity
  8
panel01
  6
CONTINUOUS
 62
  256
370
   -1
100
AcDbCircle
 10
9.500000000000028
 20
-33.58757210636092
 40
9.5
100
AcDbArc
 50
180
 51
270
  0
CIRCLE
  5
11C
100
AcDbEntity
  8
panel01
  6
CONTINUOUS
 62
  256
370
   -1
100
AcDbCircle
 10
9.500000000000028
 20
-33.58757210636091
 40
2
  0
ARC
  5
11D
100
AcDbEntity
  8
panel01
  6
CONTINUOUS
 62
  256
370
   -1
100
AcDbCircle
 10
76.675144212722
 20
-33.58757210636096
 40
9.5
100
AcDbArc
 50
270.0000000000001
 51
0
  0
CIRCLE
  5
11E
100
AcDbEntity
  8
panel01
  6
CONTINUOUS
 62
  256
370
   -1
100
AcDbCircle
 10
76.675144212722
 20
-33.58757210636096
 40
2
  0
ARC
  5
11F
100
AcDbEntity
  8
Defpoints
  6
CONTINUOUS
 62
  256
370
   -1
100
AcDbCircle
 10
-118.5972222222224
 20
1.42e-14
 40
127.5972222222224
100
AcDbArc
 50
348.1634228459085
 51
11.8365771540915
  0
ARC
  5
120
100
AcDbEntity
  8
Defpoints
  6
CONTINUOUS
 62
  256
370
   -1
100
AcDbCircle
 10
3.350644497140365
 20
-25.55749573198443
 40
3
100
AcDbArc
 50
255.748506068564
 51
348.1634228459082
  0
ARC
  5
121
100
AcDbEntity
  8
Defpoints
  6
CONTINUOUS
 62
  256
370
   -1
100
AcDbCircle
 10
3.000000000000085
 20
-25.46843364181846
 40
3
100
AcDbArc
 50
180.0000000000001
 51
255.748506068564
  0
LINE
  5
122
100
AcDbEntity
  8
Defpoints
  6
CONTINUOUS
 62
  256
370
   -1
100
AcDbLine
 10
2.261464305918906
 20
-28.37610711533092
 11
2.612108803059186
 21
-28.46516920549692
  0
CIRCLE
  5
123
100
AcDbEntity
  8
panel01
  6
CONTINUOUS
 62
  256
370
   -1
100
AcDbCircle
 10
9.5
 20
33.58757210636102
 40
2
  0
ARC
  5
124
100
AcDbEntity
  8
Defpoints
  6
CONTINUOUS
 62
  256
370
   -1
100
AcDbCircle
 10
3.350644497140365
 20
25.55749573198451
 40
3
100
AcDbArc
 50
11.83657715409146
 51
104.2514939314361
  0
ARC
  5
125
100
AcDbEntity
  8
Defpoints
  6
CONTINUOUS
 62
  256
370
   -1
100
AcDbCircle
 10
2.999999999999943
 20
25.46843364181848
 40
3
100
AcDbArc
 50
104.2514939314357
 51
180.0000000000001
  0
LINE
  5
126
100
AcDbEntity
  8
Defpoints
  6
CONTINUOUS
 62
  256
370
   -1
100
AcDbLine
 10
2.261464305918792
 20
28.37610711533094
 11
2.612108803059186
 21
28.46516920549697
  0
CIRCLE
  5
127
100
AcDbEntity
  8
panel01
  6
CONTINUOUS
 62
  256
370
   -1
100
AcDbCircle
 10
76.67514421272205
 20
33.58757210636104
 40
2
  0
LINE
  5
128
100
AcDbEntity
  8
panel01
  6
CONTINUOUS
 62
  256
370
   -1
100
AcDbLine
 10
76.67514421272203
 20
43.08757210636102
 11
9.500000000000085
 21
43.08757210636108
  0
ARC
  5
129
100
AcDbEntity
  8
panel02
  6
CONTINUOUS
 62
  256
370
   -1
100
AcDbCircle
 10
243.3506444971403
 20
25.55749573198451
 40
3
100
AcDbArc
 50
11.83657715409146
 51
104.2514939314361
  0
ARC
  5
12A
100
AcDbEntity
  8
panel02
  6
CONTINUOUS
 62
  256
370
   -1
100
AcDbCircle
 10
121.4027777777775
 20
1.42e-14
 40
127.5972222222224
100
AcDbArc
 50
348.1634228459085
 51
11.8365771540915
  0
ARC
  5
12B
100
AcDbEntity
  8
panel02
  6
CONTINUOUS
 62
  256
370
   -1
100
AcDbCircle
 10
243.3506444971403
 20
-25.55749573198443
 40
3
100
AcDbArc
 50
255.748506068564
 51
348.1634228459082
  0
LINE
  5
12C
100
AcDbEntity
  8
panel02
  6
CONTINUOUS
 62
  256
370
   -1
100
AcDbLine
 10
242.2614643059189
 20
-28.37610711533092
 11
242.6121088030591
 21
-28.46516920549692
  0
ARC
  5
12D
100
AcDbEntity
  8
panel02
  6
CONTINUOUS
 62
  256
370
   -1
100
AcDbCircle
 10
243.0000000000001
 20
-25.46843364181846
 40
3
100
AcDbArc
 50
180.0000000000001
 51
255.748506068564
  0
LINE
  5
12E
100
AcDbEntity
  8
panel02
  6
CONTINUOUS
 62
  256
370
   -1
100
AcDbLine
 10
242.2614643059187
 20
28.37610711533094
 11
242.6121088030591
 21
28.46516920549697
  0
ARC
  5
12F
100
AcDbEntity
  8
panel02
  6
CONTINUOUS
 62
  256
370
   -1
100
AcDbCircle
 10
242.9999999999999
 20
25.46843364181848
 40
3
100
AcDbArc
 50
104.2514939314357
 51
180.0000000000001
  0
LINE
  5
130
100
AcDbEntity
  8
panel02
  6
CONTINUOUS
 62
  256
370
   -1
100
AcDbLine
 10
240
 20
-25.46843364181847
 11
239.9999999999999
 21
25.46843364181847
  0
LINE
  5
131
100
AcDbEntity
  8
panel11
  6
CONTINUOUS
 62
  256
370
   -1
100
AcDbLine
 10
86.17514421272205
 20
260
 11
86.17514421272205
 21
265
  0
LINE
  5
132
100
AcDbEntity
  8
panel11
  6
CONTINUOUS
 62
  256
370
   -1
100
AcDbLine
 10
8.999999999999986
 20
265
 11
86.17514421272205
 21
265
  0
LINE
  5
133
100
AcDbEntity
  8
dims
  6
CONTINUOUS
 62
  256
370
   -1
100
AcDbLine
 10
286.4406584421099
 20
-48.76956287268376
 11
286.4406584421099
 21
-43.66560587686331
  0
LINE
  5
134
100
AcDbEntity
  8
panel11
  6
CONTINUOUS
 62
  256
370
   -1
100
AcDbLine
 10
0
 20
325
 11
0
 21
260
  0
LINE
  5
135
100
AcDbEntity
  8
panel11
  6
CONTINUOUS
 62
  256
370
   -1
100
AcDbLine
 10
0
 20
325
 11
8.999999999999986
 21
324.9999999999999
  0
LINE
  5
136
100
AcDbEntity
  8
panel11
  6
CONTINUOUS
 62
  256
370
   -1
100
AcDbLine
 10
8.999999999999986
 20
265
 11
8.999999999999986
 21
324.9999999999999
  0
LINE
  5
137
100
AcDbEntity
  8
panel12
  6
CONTINUOUS
 62
  256
370
   -1
100
AcDbLine
 10
240
 20
260
 11
235
 21
260
  0
LINE
  5
138
100
AcDbEntity
  8
panel12
  6
CONTINUOUS
 62
  256
370
   -1
100
AcDbLine
 10
240
 20
346.1751442127218
 11
240
 21
259.9999999999998
  0
LINE
  5
139
100
AcDbEntity
  8
panel12
  6
CONTINUOUS
 62
  256
370
   -1
100
AcDbLine
 10
235
 20
346.1751442127218
 11
235
 21
331.6416357267693
  0
LINE
  5
13A
100
AcDbEntity
  8
panel12
  6
CONTINUOUS
 62
  256
370
   -1
100
AcDbLine
 10
175
 20
318.0875721063608
 11
174.9999999999999
 21
288.0875721063608
  0
LINE
  5
13B
100
AcDbEntity
  8
panel12
  6
CONTINUOUS
 62
  256
370
   -1
100
AcDbLine
 10
234.9999999999999
 20
346.1751442127218
 11
240
 21
346.1751442127218
  0
CIRCLE
  5
13C
100
AcDbEntity
  8
Defpoints
  6
CONTINUOUS
 62
  256
370
   -1
100
AcDbCircle
 10
175
 20
303.0875721063608
 40
15
  0
LINE
  5
13D
100
AcDbEntity
  8
panel12
  6
CONTINUOUS
 62
  256
370
   -1
100
AcDbLine
 10
175
 20
318.0875721063608
 11
235
 21
331.6416357267693
  0
LINE
  5
13E
100
AcDbEntity
  8
panel12
  6
CONTINUOUS
 62
  256
370
   -1
100
AcDbLine
 10
175
 20
288.0875721063608
 11
235
 21
274.5335084859523
  0
LINE
  5
13F
100
AcDbEntity
  8
panel12
  6
CONTINUOUS
 62
  256
370
   -1
100
AcDbLine
 10
235
 20
274.5335084859523
 11
235
 21
259.9999999999998
  0
DIMENSION
  5
140
100
AcDbEntity
  8
dims
  6
ByLayer
 62
  256
370
   -1
100
AcDbDimension
  2
*D10
 10
-2.6e-15
 20
-42.22773646493251
 30
0
 11
4.750000000000012
 21
-42.22773646493251
 31
0
 70
   32
  1
L03
 71
    5
  3
Standard
 53
0
210
0
220
0
230
1
100
AcDbAlignedDimension
 13
9.500000000000028
 23
-33.58757210636091
 33
0
 14
0
 24
0
 34
0
100
AcDbRotatedDimension
  0
ENDSEC
  0
SECTION
  2
OBJECTS
  0
DICTIONARY
  5
C
330
0
100
AcDbDictionary
281
    1
  3
ACAD_GROUP
350
D
  0
DICTIONARY
  5
D
330
C
100
AcDbDictionary
281
    1
  0
ENDSEC
  0
EOF
